{
  "accessors": [
    {
      "bufferView": 2,
      "componentType": 5126,
      "count": 479,
      "max": [
        2.474461793899536,
        1.9097843170166016,
        1.9758718013763428
      ],
      "min": [
        -2.4116673469543457,
        -1.9097847938537598,
        -0.8456048965454102
      ],
      "type": "VEC3"
    },
    {
      "bufferView": 2,
      "byteOffset": 5748,
      "componentType": 5126,
      "count": 479,
      "max": [
        0.9953644275665283,
        0.948313295841217,
        1.0
      ],
      "min": [
        -0.984214186668396,
        -1.0,
        -0.9242705702781677
      ],
      "type": "VEC3"
    },
    {
      "bufferView": 1,
      "componentType": 5126,
      "count": 479,
      "max": [
        1.0,
        1.0000003576278687
      ],
      "min": [
        0.0,
        0.01000000536441803
      ],
      "type": "VEC2"
    },
    {
      "bufferView": 0,
      "componentType": 5125,
      "count": 1653,
      "type": "SCALAR"
    },
    {
      "bufferView": 2,
      "byteOffset": 11496,
      "componentType": 5126,
      "count": 149,
      "max": [
        2.3868541717529297,
        2.7009193897247314,
        1.2655657529830933
      ],
      "min": [
        -2.863020420074463,
        -2.7009201049804688,
        0.0
      ],
      "type": "VEC3"
    },
    {
      "bufferView": 2,
      "byteOffset": 13284,
      "componentType": 5126,
      "count": 149,
      "max": [
        0.9981651306152344,
        0.8002709746360779,
        0.882667601108551
      ],
      "min": [
        -0.849220335483551,
        -0.8002709746360779,
        -0.9242705702781677
      ],
      "type": "VEC3"
    },
    {
      "bufferView": 1,
      "byteOffset": 3832,
      "componentType": 5126,
      "count": 149,
      "max": [
        1.0,
        0.9959650039672852
      ],
      "min": [
        0.0,
        0.75
      ],
      "type": "VEC2"
    },
    {
      "bufferView": 0,
      "byteOffset": 6612,
      "componentType": 5125,
      "count": 591,
      "type": "SCALAR"
    },
    {
      "bufferView": 2,
      "byteOffset": 15072,
      "componentType": 5126,
      "count": 24,
      "max": [
        0.05167342722415924,
        0.17381715774536133,
        1.9758720397949219
      ],
      "min": [
        -0.980785071849823,
        -0.3807021975517273,
        1.2796581983566284
      ],
      "type": "VEC3"
    },
    {
      "bufferView": 2,
      "byteOffset": 15360,
      "componentType": 5126,
      "count": 24,
      "max": [
        0.9986706376075745,
        0.9942360520362854,
        1.0
      ],
      "min": [
        -0.657941460609436,
        -0.970902681350708,
        -0.41951608657836914
      ],
      "type": "VEC3"
    },
    {
      "bufferView": 1,
      "byteOffset": 5024,
      "componentType": 5126,
      "count": 24,
      "max": [
        0.17502570152282715,
        0.2939601242542267
      ],
      "min": [
        0.07286666333675385,
        0.1416006088256836
      ],
      "type": "VEC2"
    },
    {
      "bufferView": 0,
      "byteOffset": 8976,
      "componentType": 5125,
      "count": 114,
      "type": "SCALAR"
    }
  ],
  "asset": {
    "extras": {
      "author": "uriel_desing (https://sketchfab.com/thailineolivera)",
      "license": "CC-BY-4.0 (http://creativecommons.org/licenses/by/4.0/)",
      "source": "https://sketchfab.com/3d-models/space-nave-navy-c2de1f749c04423097f1fe010bb6669b",
      "title": "space nave navy"
    },
    "generator": "Sketchfab-14.21.0",
    "version": "2.0"
  },
  "bufferViews": [
    {
      "buffer": 0,
      "byteLength": 9432,
      "name": "floatBufferViews",
      "target": 34963
    },
    {
      "buffer": 0,
      "byteLength": 5216,
      "byteOffset": 9432,
      "byteStride": 8,
      "name": "floatBufferViews",
      "target": 34962
    },
    {
      "buffer": 0,
      "byteLength": 15648,
      "byteOffset": 14648,
      "byteStride": 12,
      "name": "floatBufferViews",
      "target": 34962
    }
  ],
  "buffers": [
    {
      "byteLength": 30296,
      "uri": "scene.bin"
    }
  ],
  "extensionsUsed": [
    "KHR_materials_unlit"
  ],
  "materials": [
    {
      "doubleSided": true,
      "extensions": {
        "KHR_materials_unlit": {}
      },
      "name": "Material.001",
      "pbrMetallicRoughness": {
        "baseColorFactor": [
          0.0265367,
          0.0183118,
          0.8,
          1.0
        ],
        "metallicFactor": 0.0
      }
    },
    {
      "doubleSided": true,
      "extensions": {
        "KHR_materials_unlit": {}
      },
      "name": "Material.002",
      "pbrMetallicRoughness": {
        "baseColorFactor": [
          0.8,
          0.8,
          0.8,
          1.0
        ],
        "metallicFactor": 0.0
      }
    },
    {
      "doubleSided": true,
      "extensions": {
        "KHR_materials_unlit": {}
      },
      "name": "Material.003",
      "pbrMetallicRoughness": {
        "baseColorFactor": [
          0.739404,
          0.8,
          0.0002749,
          1.0
        ],
        "metallicFactor": 0.0
      }
    }
  ],
  "meshes": [
    {
      "name": "Cylinder_Material.001_0",
      "primitives": [
        {
          "attributes": {
            "NORMAL": 1,
            "POSITION": 0,
            "TEXCOORD_0": 2
          },
          "indices": 3,
          "material": 0,
          "mode": 4
        }
      ]
    },
    {
      "name": "Cylinder_Material.002_0",
      "primitives": [
        {
          "attributes": {
            "NORMAL": 5,
            "POSITION": 4,
            "TEXCOORD_0": 6
          },
          "indices": 7,
          "material": 1,
          "mode": 4
        }
      ]
    },
    {
      "name": "Cylinder_Material.003_0",
      "primitives": [
        {
          "attributes": {
            "NORMAL": 9,
            "POSITION": 8,
            "TEXCOORD_0": 10
          },
          "indices": 11,
          "material": 2,
          "mode": 4
        }
      ]
    }
  ],
  "nodes": [
    {
      "children": [
        1
      ],
      "matrix": [
        1.0,
        -1.6081226229577292e-16,
        -3.5707495248565405e-32,
        0.0,
        0.0,
        2.220446049250313e-16,
        -1.0,
        0.0,
        1.6081226229577292e-16,
        1.0,
        2.220446049250313e-16,
        0.0,
        0.0,
        0.0,
        0.0,
        1.0
      ],
      "name": "Sketchfab_model"
    },
    {
      "children": [
        2
      ],
      "matrix": [
        0.009999999776482582,
        0.0,
        0.0,
        0.0,
        0.0,
        0.0,
        -0.009999999776482582,
        0.0,
        0.0,
        0.009999999776482582,
        0.0,
        0.0,
        0.0,
        0.0,
        0.0,
        1.0
      ],
      "name": "9bec127d4e594eed87ea2f3fda4d7f1f.fbx"
    },
    {
      "children": [
        3
      ],
      "name": "RootNode"
    },
    {
      "children": [
        4,
        5,
        6
      ],
      "matrix": [
        100.0,
        0.0,
        0.0,
        0.0,
        0.0,
        -1.629206793918314e-05,
        99.99999999999868,
        0.0,
        0.0,
        -99.99999999999868,
        -1.629206793918314e-05,
        0.0,
        0.0,
        0.0,
        0.0,
        1.0
      ],
      "name": "Cylinder"
    },
    {
      "mesh": 0,
      "name": "Cylinder_Material.001_0"
    },
    {
      "mesh": 1,
      "name": "Cylinder_Material.002_0"
    },
    {
      "mesh": 2,
      "name": "Cylinder_Material.003_0"
    }
  ],
  "scene": 0,
  "scenes": [
    {
      "name": "Sketchfab_Scene",
      "nodes": [
        0
      ]
    }
  ]
}
